<svg width="125" height="18" viewBox="0 0 125 18" fill="none" xmlns="http://www.w3.org/2000/svg">
<g clip-path="url(#clip0_128_348)">
<path d="M4.12497 9.01117L2.06248 11.0409L0 9.01117L2.06248 6.98139L4.12497 9.01117ZM9.15654 4.05948L12.6922 7.56137L14.7547 5.5316L11.219 2.02974L9.15654 0L7.09405 2.02974L3.53569 5.5316L5.59818 7.56137L9.15654 4.05948ZM16.2506 6.98139L14.1881 9.01117L16.2506 11.0409L18.3131 9.01117L16.2506 6.98139ZM9.15654 13.9405L5.62084 10.461L3.53569 12.4907L7.07139 15.9703L9.13388 18L11.1964 15.9703L14.7547 12.4907L12.6922 10.461L9.15654 13.9405ZM9.15654 11.0409L11.219 9.01117L9.15654 6.98139L7.09405 9.01117L9.15654 11.0409ZM30.9826 11.2416V11.2193C30.9826 9.90335 30.2573 9.23419 29.1015 8.7881C29.8267 8.38663 30.416 7.7621 30.416 6.64684V6.62456C30.416 5.0632 29.1468 4.05948 27.1069 4.05948H22.4381V13.9405H27.2203C29.4867 13.9405 30.9826 13.0483 30.9826 11.2416ZM28.2176 7.02602C28.2176 7.7621 27.6056 8.07437 26.631 8.07437H24.5912V5.97769H26.767C27.6962 5.97769 28.2176 6.33457 28.2176 7.00374V7.02602ZM28.7841 10.974C28.7841 11.7101 28.1948 12.0446 27.2203 12.0446H24.5912V9.88107H27.1523C28.2855 9.88107 28.7841 10.2825 28.7841 10.9517V10.974ZM35.6062 13.9405V4.05948H33.4078V13.9405H35.6062ZM47.4825 13.9405V4.05948H45.3067V10.1487L40.5924 4.05948H38.5526V13.9405H40.7284V7.67284L45.6013 13.9628H47.4825V13.9405ZM59.7214 13.9405L55.4151 3.99257H53.3753L49.069 13.9405H51.3129L52.2421 11.7323H56.4804L57.4096 13.9405H59.7214ZM55.7098 9.8141H53.0353L54.3725 6.60221L55.7098 9.8141ZM70.2379 13.9405V4.05948H68.0617V10.1487L63.3476 4.05948H61.3079V13.9405H63.4835V7.67284L68.3566 13.9628H70.2379V13.9405ZM81.661 12.3569L80.2558 10.9517C79.4626 11.6654 78.7599 12.1115 77.6266 12.1115C75.9042 12.1115 74.7255 10.7063 74.7255 9.01117V8.98883C74.7255 7.29366 75.9495 5.91078 77.6266 5.91078C78.624 5.91078 79.4173 6.33457 80.1875 7.02602L81.5928 5.42007C80.6636 4.50557 79.5302 3.90334 77.6266 3.90334C74.5442 3.90334 72.391 6.20075 72.391 9.01117V9.03345C72.391 11.8662 74.5895 14.119 77.5359 14.119C79.4626 14.119 80.6183 13.4498 81.661 12.3569ZM91.067 13.9405V12H85.6273V9.92563H90.3644V7.98511H85.6273V5.97769H90.9987V4.03718H83.4288V13.9182H91.067V13.9405Z" fill="#1E2026"/>
<path d="M105.063 7.37285C105.063 5.36024 103.601 4.06543 101.286 4.06543H97.3672V13.9173H99.1138V10.7506H101.088C103.274 10.7506 105.063 9.59653 105.063 7.37285ZM103.289 7.41506C103.289 8.4706 102.465 9.18843 101.144 9.18843H99.1138V5.64173H101.144C102.451 5.64173 103.289 6.24692 103.289 7.41506Z" fill="#1E2026"/>
<path d="M110.994 3.99512H109.375L105.002 13.9173H106.791L107.814 11.5389H112.514L113.522 13.9173H115.367L110.994 3.99512ZM111.874 10.0048H108.452L110.156 6.06401L111.874 10.0048Z" fill="#1E2026"/>
<path d="M120.19 9.99061L124.138 4.06543H122.136L119.324 8.42839L116.541 4.06543H114.482L118.429 10.0329V13.9173H120.19V9.99061Z" fill="#1E2026"/>
</g>
<defs>
<clipPath id="clip0_128_348">
<rect width="124.138" height="18" fill="white"/>
</clipPath>
</defs>
</svg>
