<svg width="76" height="36" viewBox="0 0 76 36" fill="none" xmlns="http://www.w3.org/2000/svg">
<path fill-rule="evenodd" clip-rule="evenodd" d="M54.0747 0.000378384C54.0747 2.04968 52.4254 3.71097 50.391 3.71097C48.3565 3.71097 46.7072 2.04968 46.7072 0.000378384V0H0V35.7647H76V0H54.0747V0.000378384ZM36.6617 12.312C38.996 12.312 41.0191 13.2284 42.7309 15.0612C44.4427 16.8819 45.2986 19.1127 45.2986 21.7534C45.2986 24.394 44.4367 26.6308 42.7129 28.4636C41.0011 30.2844 38.984 31.1947 36.6617 31.1947C35.6322 31.1947 34.6686 30.9837 33.7707 30.5617C32.8729 30.1276 32.2385 29.6995 31.8674 29.2775L31.3287 28.6083V30.764H26.3549V4.89635H31.3287V14.8984C31.3766 14.8261 31.4484 14.7356 31.5442 14.6271C31.64 14.5186 31.8494 14.3196 32.1727 14.0302C32.5078 13.7288 32.867 13.4635 33.25 13.2344C33.6331 12.9933 34.1299 12.7822 34.7404 12.6014C35.3629 12.4084 36.0033 12.312 36.6617 12.312ZM32.6036 25.3527C33.4655 26.2932 34.507 26.7634 35.728 26.7634C36.961 26.7634 38.0024 26.2932 38.8523 25.3527C39.7142 24.4121 40.1452 23.2124 40.1452 21.7534C40.1452 20.2943 39.7142 19.1006 38.8523 18.1721C38.0024 17.2316 36.961 16.7614 35.728 16.7614C34.507 16.7614 33.4655 17.2316 32.6036 18.1721C31.7537 19.1006 31.3287 20.2943 31.3287 21.7534C31.3287 23.2124 31.7537 24.4121 32.6036 25.3527ZM56.2522 4.91736V30.7621H61.3497V4.91736H56.2522ZM23.7887 21.8838V26.28H21.777V30.7621H17.0886V26.28H5.3261V25.3699L12.8729 4.91793H17.7999L11.7363 21.8838H17.208L18.0093 16.3199H21.777V21.8838H23.7887ZM47.8478 30.7621V8.63979H52.9453V30.7621H47.8478ZM64.6566 30.7621V4.91736H69.7541V30.7621H64.6566Z" fill="#181818"/>
</svg>
